<svg width="14" height="17" viewBox="0 0 14 17" fill="none" xmlns="http://www.w3.org/2000/svg">
<path fill-rule="evenodd" clip-rule="evenodd" d="M11.0783 4.40922C11.0783 6.85674 9.11593 8.81926 6.66667 8.81926C4.21826 8.81926 2.25502 6.85674 2.25502 4.40922C2.25502 1.96169 4.21826 6.53737e-06 6.66667 6.53737e-06C9.11593 6.53737e-06 11.0783 1.96169 11.0783 4.40922ZM6.66673 16.6667C3.05204 16.6667 6.42138e-05 16.0792 6.42138e-05 13.8125C6.42138e-05 11.5449 3.07122 10.9783 6.66673 10.9783C10.2823 10.9783 13.3334 11.5658 13.3334 13.8325C13.3334 16.1 10.2622 16.6667 6.66673 16.6667Z" fill="#D5D5E1"/>
</svg>
